<svg xmlns="http://www.w3.org/2000/svg" version="1.1" xmlns:xlink="http://www.w3.org/1999/xlink" xmlns:svgjs="http://svgjs.dev/svgjs" width="1000" height="1000" viewBox="0 0 1000 1000"><rect width="1000" height="1000" fill="#000000"></rect><g transform="matrix(0.7,0,0,0.7,150.13896228545042,160.07546558704445)"><svg viewBox="0 0 254 247" data-background-color="#ffffff" preserveAspectRatio="xMidYMid meet" height="972" width="1000" xmlns="http://www.w3.org/2000/svg" xmlns:xlink="http://www.w3.org/1999/xlink"><g id="tight-bounds" transform="matrix(1,0,0,1,-0.05042345167549911,-0.09999999999999432)"><svg viewBox="0 0 254.10084690953894 247.2" height="247.2" width="254.10084690953894"><g><svg viewBox="0 0 395.52 384.7785050272086" height="247.2" width="254.10084690953894"><g transform="matrix(1,0,0,1,0,275.8980741474959)"><svg viewBox="0 0 395.52 108.88043087971273" height="108.88043087971273" width="395.52"><g id="textblocktransform"><svg viewBox="0 0 395.52 108.88043087971273" height="108.88043087971273" width="395.52" id="textblock"><g><svg viewBox="0 0 395.52 108.88043087971273" height="108.88043087971273" width="395.52"><g transform="matrix(1,0,0,1,0,0)"><svg width="395.52" viewBox="0.20000000298023224 -33.08000183105469 122.3800048828125 33.69000244140625" height="108.88043087971273" data-palette-color="#77d4fc"><path d="M15.87 0.02L15.82 0.1Q15.09 0 13.33 0L13.33 0 10.5 0Q9.67 0 9.13 0.05L9.13 0.05 9.11 0Q9.2-0.17 9.2-0.39 9.2-0.61 9.17-0.85 9.13-1.1 8.97-1.73 8.81-2.37 8.5-3.56L8.5-3.56 0.2-32.57Q1.76-32.47 3.98-32.47 6.2-32.47 6.86-32.67L6.86-32.67 12.62-10.57 18.24-32.57Q18.6-32.54 18.9-32.52L18.9-32.52 19.43-32.52Q20.24-32.47 21.46-32.47 22.68-32.47 23.97-32.67L23.97-32.67 29.69-10.57 34.59-32.57Q36.06-32.47 38.43-32.47 40.8-32.47 41.31-32.67L41.31-32.67 34.28-6.91Q32.93-2.47 32.86-1.64 32.79-0.81 32.79-0.49 32.79-0.17 32.89 0.02L32.89 0.02 32.84 0.1Q32.06 0 30.37 0L30.37 0Q28.91 0 27.71 0 26.51 0 25.98 0.05L25.98 0.05 25.95 0Q26.05-0.17 26.05-0.39 26.05-0.61 26.03-0.83 26-1.05 25.89-1.67 25.78-2.29 25.54-3.52L25.54-3.52 24.88-6.84 20.87-22.05 17.07-6.91Q15.89-2.25 15.84-1.54L15.84-1.54Q15.75-0.2 15.87 0.02L15.87 0.02ZM46.7 0L46.7-32.57Q49.14-32.47 49.66-32.47L49.66-32.47 51.41-32.47Q52.71-32.47 53.49-32.67L53.49-32.67 53.46 0 46.7 0ZM69.23 0L62.86 0Q63.01-0.83 63.01-1.81L63.01-1.81 63.01-32.47 67.89-32.47 80.83-12.11 80.83-30.81Q80.83-32.15 80.59-32.47L80.59-32.47 87.18-32.47Q87.06-31.49 87.06-30.32L87.06-30.32 87.06 0 81.98 0 69.23-19.56 69.23 0ZM122.5-19.63L122.58-19.58Q122.11-18.75 122.11-15.6L122.11-15.6 122.11-8.03Q122.11-4.59 118.55-2.05L118.55-2.05Q114.86 0.61 109.51 0.61L109.51 0.61Q102.09 0.61 97.67-4.05L97.67-4.05Q93.4-8.5 93.4-15.38L93.4-15.38Q93.4-22.71 97.75-27.59L97.75-27.59Q102.6-33.08 111.13-33.08L111.13-33.08Q116.81-33.08 120.13-30.88L120.13-30.88 119.74-23.68 119.55-23.63Q118.69-25.12 116.18-26.07L116.18-26.07Q113.79-26.98 111.16-26.98 108.54-26.98 106.57-26.15 104.61-25.32 103.24-23.78L103.24-23.78Q100.36-20.63 100.36-15.45L100.36-15.45Q100.36-10.94 102.9-8.2L102.9-8.2Q105.44-5.49 109.44-5.49L109.44-5.49Q113.86-5.49 115.4-7.79L115.4-7.79Q115.89-8.52 115.89-9.45L115.89-9.45 115.89-13.5 112.74-13.5Q110.2-13.5 109.98-13.06L109.98-13.06 109.9-13.09 109.68-19.46Q110.37-19.26 115.23-19.26L115.23-19.26 118.11-19.26Q120.79-19.26 122.5-19.63L122.5-19.63Z" opacity="1" transform="matrix(1,0,0,1,0,0)" fill="#ffffff" class="wordmark-text-0" data-fill-palette-color="primary" id="text-0"></path></svg></g></svg></g></svg></g></svg></g><g transform="matrix(1,0,0,1,85.5150195266111,0)"><svg viewBox="0 0 224.48996094677779 224.48996094677779" height="224.48996094677779" width="224.48996094677779"><g><svg></svg></g><g id="icon-0"><svg viewBox="0 0 224.48996094677779 224.48996094677779" height="224.48996094677779" width="224.48996094677779"><g><path d="M0 112.245c0-61.991 50.254-112.245 112.245-112.245 61.991 0 112.245 50.254 112.245 112.245 0 61.991-50.254 112.245-112.245 112.245-61.991 0-112.245-50.254-112.245-112.245zM112.245 214.671c56.568 0 102.426-45.858 102.426-102.426 0-56.568-45.858-102.426-102.426-102.426-56.568 0-102.426 45.858-102.426 102.426 0 56.568 45.858 102.426 102.426 102.426z" data-fill-palette-color="accent" fill="#ffffff" stroke="transparent"></path><ellipse rx="111.122530668655" ry="111.122530668655" cx="112.24498047338889" cy="112.24498047338889" fill="#ffffff" stroke="transparent" stroke-width="0" fill-opacity="1" data-fill-palette-color="accent"></ellipse></g><g transform="matrix(1,0,0,1,49.89684240155535,68.5657151879012)"><svg viewBox="0 0 124.69627614366709 87.35853057097538" height="87.35853057097538" width="124.69627614366709"><g><svg xmlns="http://www.w3.org/2000/svg" xmlns:xlink="http://www.w3.org/1999/xlink" version="1.1" x="0" y="0" viewBox="5 18.399999618530273 90.06945037841797 63.099998474121094" enable-background="new 0 0 100 100" xml:space="preserve" height="87.35853057097538" width="124.69627614366709" class="icon-s-0" data-fill-palette-color="quaternary" id="s-0"><path d="M12.9 32c-2.8-0.9-5-3.1-5.8-5.9L5 18.4c0 0 22.2 14 54.1 18.9 2.6 0.4 4.7 2.2 5.5 4.7 2.4 7.9 9.3 24 24.7 19.3 9.3-2.9 4.9 11.3 3.5 15.2-0.1 0.4-0.6 0.4-0.8 0l-1.9-4.7c-0.1-0.1-0.3-0.1-0.4 0.1l-0.3 1.2c-0.7 2.5-2.4 4.5-4.8 5.5l-0.3 0.1-0.1-5.9c0-0.2-0.3-0.3-0.4-0.1L83.1 75c-0.9 2.9-3.3 5-6.2 5.7l0 0 2-8.1c0.1-0.2-0.3-0.4-0.4-0.2l-2.8 4.6c-1.2 2-3.2 3.4-5.5 3.9l-2.6 0.6 4.7-10.3c0.1-0.2-0.2-0.4-0.4-0.3l-4.8 5.2c-1.5 1.6-3.5 2.6-5.6 2.8l-5.4 0.5L65 69.3c0.2-0.2-0.1-0.5-0.3-0.3l-7.1 5.2c-1.6 1.1-3.5 1.7-5.4 1.7l-8.9-0.3 15.2-11.8c0.2-0.2 0-0.5-0.2-0.4l-15.9 6.8c-2.4 1-5.2 0.9-7.5-0.3l-6.6-3.5L52 57.5c0.3-0.1 0.2-0.5-0.1-0.4l-20.8 3.7c-2.3 0.4-4.7-0.2-6.6-1.6L16.2 53 45.9 50c0.5-0.1 0.5-0.8 0-0.9l-29.3-2.7c-3.2-0.3-5.9-2.3-7.2-5.2l-2.3-5.5 30.7 5.1c0.5 0.1 0.7-0.7 0.2-0.8L12.9 32z" fill="#000000" data-fill-palette-color="quaternary"></path></svg></g></svg></g></svg></g></svg></g><g></g></svg></g><defs></defs></svg><rect width="254.10084690953894" height="247.2" fill="none" stroke="none" visibility="hidden"></rect></g></svg></g></svg>